# AST/ASF file generated using VICON BodyLanguage
# -----------------------------------------------
:version 1.10
:name VICON
:units
  mass 1.0
  length 0.45
  angle deg
:documentation
   .ast/.asf automatically generated from VICON data using
   VICON BodyBuilder and BodyLanguage model FoxedUp or BRILLIANT.MOD
:root
   order TX TY TZ RX RY RZ
   axis XYZ
   position 0 0 0  
   orientation 0 0 0 
:bonedata
  begin
     id 1 
     name lhipjoint
     direction 0.682418 -0.694059 0.22932 
     length 2.25561 
     axis 0 0 0  XYZ
  end
  begin
     id 2 
     name lfemur
     direction 0.34202 -0.939693 0  
     length 6.96448  
     axis 0 0 20  XYZ
    dof rx ry rz
    limits (-160.0 20.0)
           (-70.0 70.0)
           (-60.0 70.0)
  end
  begin
     id 3 
     name ltibia
     direction 0.34202 -0.939693 0   
     length 6.88553   
     axis 0 0 20   XYZ
    dof rx
    limits (-10.0 170.0)
  end
  begin
     id 4 
     name lfoot
     direction 0.0723587 -0.198804 0.977364   
     length 1.88518   
     axis -90 7.62852e-016 20   XYZ
    dof rx rz
    limits (-45.0 90.0)
           (-70.0 20.0)
  end
  begin
     id 5 
     name ltoes
     direction 1.53558e-011 -4.21962e-011 1   
     length 0.952124   
     axis -90 7.62852e-016 20   XYZ
    dof rx
    limits (-90.0 20.0)
  end
  begin
     id 6 
     name rhipjoint
     direction -0.657603 -0.71533 0.236348   
     length 2.18854  
     axis 0 0 0  XYZ 
  end
  begin
     id 7 
     name rfemur
     direction -0.34202 -0.939693 0   
     length 6.86686   
     axis 0 0 -20   XYZ
    dof rx ry rz
    limits (-160.0 20.0)
           (-70.0 70.0)
           (-70.0 60.0)
  end
  begin
     id 8 
     name rtibia
     direction -0.34202 -0.939693 0   
     length 6.59503   
     axis 0 0 -20   XYZ
    dof rx
    limits (-10.0 170.0)
 end
 begin
     id 9 
     name rfoot
     direction -0.101977 -0.280179 0.954516   
     length 1.93723  
     axis -90 -7.62852e-016 -20   XYZ
    dof rx rz
    limits (-45.0 90.0)
           (-20.0 70.0)
  end
  begin
     id 10 
     name rtoes
     direction -1.53564e-011 -4.21897e-011 1   
     length 0.970315   
     axis -90 -7.62852e-016 -20   XYZ
    dof rx
    limits (-90.0 20.0)
  end
  begin
     id 11 
     name lowerback
     direction -0.0339559 0.999421 -0.00235966   
     length 1.88543   
     axis 0 0 0   XYZ
    dof rx ry rz
    limits (-20.0 45.0)
           (-30.0 30.0)
           (-30.0 30.0)
  end
  begin
     id 12 
     name upperback
     direction 0.00401003 0.999739 0.0224689   
     length 1.8856   
     axis 0 0 0   XYZ
    dof rx ry rz
    limits (-20.0 45.0)
           (-30.0 30.0)
           (-30.0 30.0)
  end
  begin
     id 13 
     name thorax
     direction 0.0198619 0.999546 0.0226536   
     length 1.88352   
     axis 0 0 0   XYZ
    dof rx ry rz
    limits (-20.0 45.0)
           (-30.0 30.0)
           (-30.0 30.0)
  end
  begin
     id 14 
     name lowerneck
     direction -0.0461848 0.998632 0.0245198   
     length 1.34895   
     axis 0 0 0   XYZ
    dof rx ry rz
    limits (-20.0 45.0)
           (-30.0 30.0)
           (-30.0 30.0)
  end
  begin
     id 15 
     name upperneck
     direction -0.0180627 0.994724 -0.100984   
     length 1.35214   
     axis 0 0 0   XYZ
    dof rx ry rz
    limits (-20.0 45.0)
           (-30.0 30.0)
           (-30.0 30.0)
  end
  begin
     id 16
     name head
     direction -0.00374772 0.999293 -0.037403  
     length 1.3568  
     axis 0 0 0   XYZ
    dof rx ry rz
    limits (-20.0 45.0)
           (-30.0 30.0)
           (-30.0 30.0)
  end
  begin
     id 17 
     name lclavicle
     direction 0.971773 0.191119 0.138311  
     length 2.84954  
     axis 0 0 0   XYZ
    dof ry rz
    limits (-20.0 10.0)
           (0.0 20.0)
  end
  begin
     id 18 
     name lhumerus
     direction 1 -4.4897e-011 -2.43761e-027   
     length 4.40919   
     axis 180 -30 -90   XYZ
    dof rx ry rz
    limits (-60.0 90.0)
           (-90.0 90.0)
           (-90.0 90.0)
  end
  begin
     id 19
     name lradius
     direction 1 -4.4896e-011 -9.1621e-027   
     length 3.03857   
     axis 180 -30 -90   XYZ
    dof rx
    limits (-10.0 170.0)
  end
  begin
     id 20
     name lwrist
     direction 1 -4.4896e-011 -1.41363e-026   
     length 1.51928   
     axis 1.07133e-014 90 90   XYZ
    dof ry
    limits (-180.0 0.0)
 end
  begin
     id 21 
     name lhand
     direction 1 -4.48978e-011 -2.82725e-026   
     length 0.523208   
     axis 1.80403e-014 90 90   XYZ
    dof rx rz
    limits (-90.0 90.0)
           (-45.0 45.0)
  end
  begin
     id 22 
     name lfingers
     direction 1 -4.48977e-011 -5.6545e-026   
     length 0.421824   
     axis 3.60806e-014 90 90   XYZ
    dof rx
    limits (0.0 90.0)
  end
  begin
     id 23
     name lthumb
     direction 0.707107 -6.34962e-011 0.707107   
     length 0.605657   
     axis -90 45 2.85299e-015   XYZ
    dof rx rz
    limits (-45.0 45.0)
           (-45.0 45.0)
  end
  begin
     id 24 
     name rclavicle
     direction -0.957247 0.24311 0.156766   
     length 3.12406  
     axis 0 0 0   XYZ 
    dof ry rz
    limits (-10.0 20.0)
           (-20.0 0.0)
  end
  begin
     id 25 
     name rhumerus
     direction -1 -4.48964e-011 -1.70632e-027  
     length 4.61969   
     axis 180 30 90   XYZ
    dof rx ry rz
    limits (-90.0 60.0)
           (-90.0 90.0)
           (-90.0 90.0)
  end
  begin
     id 26 
     name rradius
     direction -1 -4.48966e-011 -6.60395e-027   
     length 3.09382   
     axis 180 30 90   XYZ
    dof rx
    limits (-10.0 170.0)
  end
  begin
     id 27 
     name rwrist
     direction -1 -4.48963e-011 -1.41363e-026   
     length 1.54691   
     axis 1.07133e-014 -90 -90   XYZ
    dof ry
    limits (-180.0 0.0)
  end
  begin
     id 28
     name rhand
     direction -1 -4.49013e-011 -2.82725e-026   
     length 0.500896   
     axis 1.80403e-014 -90 -90   XYZ
    dof rx rz
    limits (-90.0 90.0)
           (-45.0 45.0)
  end
  begin
     id 29
     name rfingers
     direction -1 -4.48902e-011 -5.6545e-026   
     length 0.403835   
     axis 3.60806e-014 -90 -90   XYZ
    dof rx
    limits (0.0 90.0)
  end
  begin
     id 30
     name rthumb
     direction -0.707107 -6.34953e-011 0.707107   
     length 0.579829   
     axis -90 -45 -2.85299e-015   XYZ
    dof rx rz
    limits (-45.0 45.0)
           (-45.0 45.0)
  end
:hierarchy
  begin
    root lhipjoint rhipjoint lowerback
    lhipjoint lfemur
    lfemur ltibia
    ltibia lfoot
    lfoot ltoes
    rhipjoint rfemur
    rfemur rtibia
    rtibia rfoot
    rfoot rtoes
    lowerback upperback
    upperback thorax
    thorax lowerneck lclavicle rclavicle
    lowerneck upperneck
    upperneck head
    lclavicle lhumerus
    lhumerus lradius
    lradius lwrist
    lwrist lhand lthumb
    lhand lfingers
    rclavicle rhumerus
    rhumerus rradius
    rradius rwrist
    rwrist rhand rthumb
    rhand rfingers
  end

#!OML:ASF E:\madness\Project 1\Capture day 1\Session 1\Female1.ASF
:FULLY-SPECIFIED
:DEGREES
219
root 16.7518 16.111 -0.970866 -135.592 -86.4995 140.33
lowerback -0.555117 -0.38446 -4.65001
upperback -3.20817 -0.579014 1.26293
thorax -2.94118 -0.165517 3.92598
lowerneck 0.511802 4.25321 1.60621
upperneck 2.68097 5.76692 -6.09508
head 0.992668 2.82291 -2.13763
rclavicle 5.72748e-015 -6.75868e-015
rhumerus -51.8016 16.6159 -88.5439
rradius 49.9742
rwrist 2.56127
rhand -5.5165 -48.6005
rfingers 7.12502
rthumb 20.2971 -77.56
lclavicle 5.72748e-015 -6.75868e-015
lhumerus -49.4922 -1.80995 81.2337
lradius 57.6555
lwrist -13.6503
lhand -15.0136 -15.9414
lfingers 7.12502
lthumb 11.1516 13.7423
rfemur -17.0836 19.8691 9.81273
rtibia 28.1563
rfoot -15.2521 -15.4459
rtoes 1.76849
lfemur -16.6688 -5.87218 -24.3914
ltibia 30.8912
lfoot -12.5402 13.243
ltoes 11.4643
220
root 16.7994 16.1184 -0.958228 -144.745 -86.1489 149.664
lowerback -0.393579 -0.454659 -4.55731
upperback -2.99522 -0.666915 1.42394
thorax -2.80106 -0.21538 4.04237
lowerneck 0.526165 4.7798 1.70276
upperneck 1.6023 6.42842 -6.47607
head 0.697138 3.1714 -2.28181
rclavicle 4.22417e-016 -7.95139e-016
rhumerus -51.5925 17.3216 -88.2734
rradius 51.2587
rwrist 2.35768
rhand -5.2781 -48.8009
rfingers 7.12502
rthumb 20.5262 -77.7358
lclavicle 4.22417e-016 -7.95139e-016
lhumerus -49.2796 -1.95876 80.7652
lradius 58.1454
lwrist -13.6819
lhand -15.4854 -16.446
lfingers 7.12502
lthumb 10.6966 13.2617
rfemur -17.4587 20.4625 9.85657
rtibia 27.6986
rfoot -14.8775 -15.4981
rtoes 2.52552
lfemur -17.124 -5.6454 -24.1366
ltibia 31.0217
lfoot -12.0787 13.7272
ltoes 10.4179
221
root 16.8504 16.1251 -0.945688 -152.472 -85.6554 157.732
lowerback -0.298034 -0.520862 -4.45255
upperback -2.92804 -0.752602 1.58637
thorax -2.77533 -0.260243 4.15412
lowerneck 1.05809 5.37015 1.94539
upperneck 0.481221 7.16572 -6.92422
head 0.31567 3.56859 -2.49555
rclavicle 8.69683e-016 -4.37326e-015
rhumerus -51.5426 18.0457 -88.0635
rradius 52.4901
rwrist 1.87754
rhand -4.90937 -49.1394
rfingers 7.12502
rthumb 20.8805 -78.0357
lclavicle 8.69683e-016 -4.37326e-015
lhumerus -49.2739 -2.21318 80.3109
lradius 58.6038
lwrist -13.4972
lhand -16.065 -16.9962
lfingers 7.12502
lthumb 10.1375 12.7396
rfemur -18.0842 20.9344 9.82671
rtibia 27.228
rfoot -14.3102 -15.4284
rtoes 2.86225
lfemur -17.7356 -5.40298 -23.8335
ltibia 31.1353
lfoot -11.626 14.1947
ltoes 9.20678
222
root 16.9025 16.135 -0.932453 -158.841 -85.0919 164.422
lowerback -0.0457701 -0.532179 -4.30238
upperback -2.98445 -0.775119 1.70002
thorax -2.97374 -0.267853 4.19197
lowerneck 1.55418 5.91939 2.06678
upperneck -0.298425 7.86161 -7.11449
head 0.0332774 3.93955 -2.60607
rclavicle -9.16273e-016 9.54166e-015
rhumerus -51.6605 18.4826 -87.8847
rradius 53.6684
rwrist 0.911935
rhand -2.76409 -50.2866
rfingers 7.12502
rthumb 22.9404 -78.9418
lclavicle -9.16273e-016 9.54166e-015
lhumerus -49.3858 -2.68544 79.8403
lradius 58.9073
lwrist -13.2159
lhand -16.7176 -17.9616
lfingers 7.12502
lthumb 9.50787 11.8038
rfemur -18.6887 21.3219 9.84979
rtibia 26.7928
rfoot -13.7669 -15.266
rtoes 3.12682
lfemur -18.3035 -5.19398 -23.476
ltibia 31.2342
lfoot -11.4037 14.5204
ltoes 9.93088
223
root 16.9517 16.1434 -0.921224 -163.543 -84.3563 169.338
lowerback 0.159961 -0.488234 -4.23459
upperback -2.88815 -0.718482 1.77049
thorax -2.99555 -0.240658 4.22738
lowerneck 2.22573 6.46537 2.50389
upperneck -1.46856 8.53856 -7.58021
head -0.37604 4.31158 -2.88868
rclavicle -1.1208e-014 -1.59028e-015
rhumerus -51.4671 18.6088 -87.4457
rradius 54.7184
rwrist 0.375764
rhand -7.51368 -49.0334
rfingers 7.12502
rthumb 18.3767 -78.1853
lclavicle -1.1208e-014 -1.59028e-015
lhumerus -49.1508 -3.12997 79.2728
lradius 59.0143
lwrist -13.0783
lhand -16.816 -17.4577
lfingers 7.12502
lthumb 9.41292 12.3121
rfemur -19.1711 21.6867 9.87646
rtibia 26.3908
rfoot -13.2303 -14.9743
rtoes 3.53787
lfemur -18.7096 -4.97078 -23.1862
ltibia 31.336
lfoot -11.2504 14.9501
ltoes 11.0513
224
root 17.0028 16.1493 -0.909391 -166.942 -83.4605 173.061
lowerback 0.260601 -0.413218 -4.15586
upperback -2.787 -0.616986 1.80422
thorax -2.95809 -0.193572 4.21556
lowerneck 3.26707 7.0533 3.31835
upperneck -3.06309 9.25229 -8.57386
head -0.94015 4.71749 -3.46251
rclavicle -2.45375e-015 -3.97569e-015
rhumerus -51.1383 18.7015 -86.9912
rradius 55.6821
rwrist 0.308129
rhand -8.43513 -48.4836
rfingers 7.12502
rthumb 17.4901 -77.7168
lclavicle -2.45375e-015 -3.97569e-015
lhumerus -48.9116 -3.66558 78.6549
lradius 59.271
lwrist -12.7635
lhand -17.3228 -17.6659
lfingers 7.12502
lthumb 8.92382 12.1254
rfemur -19.8527 21.9565 9.8334
rtibia 26.0243
rfoot -12.5513 -14.5218
rtoes 4.38246
lfemur -19.2187 -4.59283 -22.9343
ltibia 31.4567
lfoot -11.1245 15.4253
ltoes 11.7744
225
root 17.0584 16.1555 -0.896928 -169.603 -82.5628 176.139
lowerback 0.39888 -0.345447 -4.07294
upperback -2.68839 -0.525947 1.86425
thorax -2.94321 -0.15085 4.22928
lowerneck 3.50323 7.56506 3.58876
upperneck -4.447 9.84356 -9.21241
head -1.34468 5.04231 -3.79095
rclavicle 1.16165e-014 1.47101e-014
rhumerus -50.7659 18.7647 -86.5165
rradius 56.736
rwrist 0.111856
rhand -8.18202 -49.681
rfingers 7.12502
rthumb 17.7337 -78.8923
lclavicle 1.16165e-014 1.47101e-014
lhumerus -48.6843 -4.12545 78.0369
lradius 59.6329
lwrist -12.4468
lhand -17.982 -18.3506
lfingers 7.12502
lthumb 8.28766 11.4668
rfemur -20.6593 22.0037 9.83374
rtibia 25.6976
rfoot -11.8734 -13.8821
rtoes 5.02906
lfemur -19.8565 -4.12155 -22.6354
ltibia 31.5821
lfoot -10.9478 15.7934
ltoes 11.9558
226
root 17.115 16.164 -0.886275 -171.639 -81.6047 178.6
lowerback 0.466238 -0.282254 -4.00044
upperback -2.73969 -0.443154 1.91656
thorax -3.04302 -0.107759 4.24157
lowerneck 3.63095 8.31245 3.54445
upperneck -4.76732 10.832 -9.13775
head -1.40742 5.54265 -3.77663
rclavicle -3.73964e-015 4.37326e-015
rhumerus -50.7334 18.7235 -86.1063
rradius 57.7607
rwrist -0.186417
rhand -7.54843 -50.9812
rfingers 7.12502
rthumb 18.3433 -80.1364
lclavicle -3.73964e-015 4.37326e-015
lhumerus -48.7203 -4.62956 77.3872
lradius 59.7856
lwrist -12.2845
lhand -18.5616 -18.8958
lfingers 7.12502
lthumb 7.72829 10.943
rfemur -21.465 21.8201 9.9076
rtibia 25.4038
rfoot -11.2411 -12.9388
rtoes 4.78597
lfemur -20.5333 -3.72437 -22.302
ltibia 31.7063
lfoot -10.615 16.1414
ltoes 11.8927
227
root 17.1699 16.1733 -0.878377 -173.187 -80.4436 180.611
lowerback 0.430996 -0.194455 -3.93917
upperback -2.73133 -0.323161 1.95103
thorax -3.02681 -0.0497501 4.23891
lowerneck 4.33528 8.8246 3.86548
upperneck -6.03304 11.4319 -9.83571
head -1.84785 5.88111 -4.17448
rclavicle -2.78299e-014 1.74931e-014
rhumerus -50.5235 18.6482 -85.6308
rradius 58.8208
rwrist -0.392624
rhand -4.69077 -50.6078
rfingers 7.12502
rthumb 21.0905 -79.4808
lclavicle -2.78299e-014 1.74931e-014
lhumerus -48.6354 -5.08812 76.6111
lradius 59.8637
lwrist -12.1392
lhand -18.98 -19.2146
lfingers 7.12502
lthumb 7.32449 10.6386
rfemur -22.3578 21.6681 9.99226
rtibia 25.1579
rfoot -10.8272 -11.7656
rtoes 3.98101
lfemur -21.2062 -3.30882 -21.9468
ltibia 31.8169
lfoot -10.268 16.5999
ltoes 11.6376
228
root 17.2244 16.1823 -0.874288 -173.891 -79.2887 181.737
lowerback 0.411873 -0.140613 -4.0272
upperback -2.7156 -0.25141 2.0034
thorax -3.00721 -0.0119391 4.34107
lowerneck 4.76466 9.49304 3.90039
upperneck -6.89132 12.2554 -10.2613
head -2.11842 6.32068 -4.4009
rclavicle 1.25856e-014 1.15295e-014
rhumerus -50.2594 18.7222 -85.1536
rradius 59.7628
rwrist -0.579062
rhand -2.08994 -50.3562
rfingers 7.12502
rthumb 23.5871 -78.9296
lclavicle 1.25856e-014 1.15295e-014
lhumerus -48.7336 -5.33438 75.7898
lradius 60.1503
lwrist -12.1408
lhand -19.6543 -19.7205
lfingers 7.12502
lthumb 6.67352 10.1543
rfemur -23.1569 21.7477 9.9724
rtibia 24.9757
rfoot -11.0829 -10.6162
rtoes 3.45009
lfemur -21.7979 -2.79703 -21.6819
ltibia 31.8935
lfoot -9.90886 17.0454
ltoes 11.0519
229
root 17.2786 16.1917 -0.871195 -174.36 -78.2545 182.498
lowerback 0.472627 -0.14042 -4.16082
upperback -2.62513 -0.252029 2.0969
thorax -2.94773 -0.0104988 4.51418
lowerneck 4.75673 10.234 3.38094
upperneck -7.43378 13.1747 -10.2029
head -2.26327 6.79425 -4.32096
rclavicle 2.17421e-015 1.59028e-015
rhumerus -49.737 18.9016 -84.6171
rradius 60.3725
rwrist -0.765865
rhand -2.73731 -49.7852
rfingers 7.12502
rthumb 22.9661 -78.4372
lclavicle 2.17421e-015 1.59028e-015
lhumerus -48.749 -5.35258 74.9915
lradius 60.455
lwrist -12.2661
lhand -20.4665 -20.3038
lfingers 7.12502
lthumb 5.88944 9.59432
rfemur -23.6841 21.9187 9.97239
rtibia 24.8595
rfoot -11.784 -9.54496
rtoes 2.72739
lfemur -22.2188 -2.33369 -21.4564
ltibia 31.9499
lfoot -9.56118 17.4378
ltoes 10.8495
